# xmcd
#
# Track frame offsets:
#	150
#	14989
#	29666
#	47293
#	69760
#	85461
#	102310
#	113961
#	129275
#	143334
#	163093
#	177133
#	197080
#	209336
#
# Disc length: 2992 seconds
# Revision: 0
# Processed by: cddbd v1.5.2PL0 Copyright (c) Steve Scherf et al.
# Submitted via: dBpowerAMP V12.0
#
DISCID=be0bae0e
DTITLE=Jeff Pitchell - American Girl
DYEAR=2012
DGENRE=Modern Electric Blues
TTITLE0=Every Day
TTITLE1=T-Bone Shuffle (feat. Jay Geils)
TTITLE2=Saturday Night
TTITLE3=Out In the Cold
TTITLE4=I Found Me
TTITLE5=Homework (feat. Jay Geils
TTITLE6=Hard Drivin' Man (feat. Jay Geils
TTITLE7=Prisoner of Love (feat. Jay Geils)
TTITLE8=Step Up
TTITLE9=My Jesus
TTITLE10=Seriously
TTITLE11=American Girl
TTITLE12=Beautifully Broken
TTITLE13=It Comes to Me Naturally
EXTD=
EXTT0=
EXTT1=
EXTT2=
EXTT3=
EXTT4=
EXTT5=
EXTT6=
EXTT7=
EXTT8=
EXTT9=
EXTT10=
EXTT11=
EXTT12=
EXTT13=
PLAYORDER=
